<svg xmlns="http://www.w3.org/2000/svg" xmlns:xlink="http://www.w3.org/1999/xlink" xmlns:fi="http://pattern.flaticon.com/" x="0" y="0" width="700" height="350" viewBox="0 0 700 350"><rect x="0px" y="0px" width="100%" height="100%" opacity="1" fill="#ffffff"/><defs><g transform="matrix(-0.1875 0 0 0.1875 117.5 57.5)" id="L1_68"><path d="M160,200c-27.57,0-50,22.43-50,50s22.43,50,50,50s50-22.43,50-50   S187.57,200,160,200z M160,280c-16.542,0-30-13.458-30-30s13.458-30,30-30s30,13.458,30,30S176.542,280,160,280z" id="L1_69" fill="#ff9811"/><path d="M160,300c27.57,0,50-22.43,50-50s-22.43-50-50-50v20c16.542,0,30,13.458,30,30     s-13.458,30-30,30V300z" id="L1_70" fill="#ff5023"/><path d="M160,260c-11.046,0-20,8.954-20,20v40h20h20v-40C180,268.954,171.046,260,160,260z   " id="L1_71" fill="#9dd7f5"/><path d="M160,260c11.046,0,20,8.954,20,20v40h-20C160,320,160,290,160,260z" id="L1_72" fill="#78b9eb"/><rect x="130px" y="0px" width="60px" height="40px" id="L1_73" fill="#9dd7f5"/><rect x="160px" y="0px" width="30px" height="40px" id="L1_74" fill="#78b9eb"/><path d="M250,184.172c0,0-40.294-162.172-90-162.172s-90,40.294-90,90v72.172   C52.344,191.889,40,209.499,40,230h120L250,184.172z" id="L1_75" fill="#ffda44"/><path d="M250,184.172V112c0-49.706-40.294-90-90-90c0,47.578,0,115.365,0,158   c0,23.977,0,40,0,40v10h120C280,209.499,267.656,191.889,250,184.172z" id="L1_76" fill="#ff9811"/></g><g transform="matrix(0.28125 0 0 0.28125 305 305)" id="L1_77"><path d="M160,200c-27.57,0-50,22.43-50,50s22.43,50,50,50s50-22.43,50-50   S187.57,200,160,200z M160,280c-16.542,0-30-13.458-30-30s13.458-30,30-30s30,13.458,30,30S176.542,280,160,280z" id="XMLID_1064_" fill="#ff9811"/><path d="M160,300c27.57,0,50-22.43,50-50s-22.43-50-50-50v20c16.542,0,30,13.458,30,30     s-13.458,30-30,30V300z" id="XMLID_1069_" fill="#ff5023"/><path d="M160,260c-11.046,0-20,8.954-20,20v40h20h20v-40C180,268.954,171.046,260,160,260z   " id="XMLID_1070_" fill="#9dd7f5"/><path d="M160,260c11.046,0,20,8.954,20,20v40h-20C160,320,160,290,160,260z" id="XMLID_1072_" fill="#78b9eb"/><rect x="130px" y="0px" width="60px" height="40px" id="XMLID_1074_" fill="#9dd7f5"/><rect x="160px" y="0px" width="30px" height="40px" id="XMLID_1076_" fill="#78b9eb"/><path d="M250,184.172c0,0-40.294-162.172-90-162.172s-90,40.294-90,90v72.172   C52.344,191.889,40,209.499,40,230h120L250,184.172z" id="XMLID_1077_" fill="#ffda44"/><path d="M250,184.172V112c0-49.706-40.294-90-90-90c0,47.578,0,115.365,0,158   c0,23.977,0,40,0,40v10h120C280,209.499,267.656,191.889,250,184.172z" id="XMLID_1078_" fill="#ff9811"/></g><g transform="matrix(0.054054055362939835 0 0 0.054054055362939835 340 165)" id="L1_83"><path d="M340,145l-90,20v40l90,20c0,0,30-10,30-40S340,145,340,145z" id="L1_84" fill="#802812"/><path d="M270,185c0,20-88.203,70-160,70S0,185,0,185s38.203-70,110-70S270,165,270,185z" id="L1_85" fill="#ff9811"/><path d="M335,185 302.431,211.361 322.475,248.162 282.27,259.997 286.672,301.673     244.997,297.271 233.162,337.475 196.361,317.431 170,350 143.639,317.431 106.838,337.475 95.002,297.271 53.327,301.672     57.729,259.997 17.525,248.162 37.569,211.36 5,185 37.569,158.639 17.525,121.838 57.729,110.002 53.328,68.327 95.003,72.729     106.838,32.525 143.639,52.569 170,20 196.361,52.569 233.162,32.525 244.997,72.729 286.673,68.328 282.271,110.003     322.476,121.839 302.431,158.64z" id="L1_86" fill="#ff9811"/><path d="M302.431,211.361 335,185 302.431,158.64 322.476,121.839 282.271,110.003     286.673,68.328 244.997,72.729 233.162,32.525 196.361,52.569 170,20 170,350 196.361,317.431 233.162,337.475 244.997,297.271     286.672,301.673 282.27,259.997 322.475,248.162z" id="L1_87" fill="#ff5023"/><circle cx="50" cy="175" r="10" id="L1_88" fill="#802812"/><path d="M176.537,199.303L141.02,185l-21.213,21.213l14.304,35.516    c0,0,21.213,10.606,37.124-5.303C187.143,220.517,176.537,199.303,176.537,199.303z" id="L1_89" fill="#802812"/></g><g transform="matrix(0.10000000149011612 0 0 0.10000000149011612 242.5 67.5)" id="L1_79"><path d="M180,240L180,240c-22.092,0-40,17.908-40,40l0,0c0,22.092,17.908,40,40,40l0,0" id="XMLID_62_" fill="#006df0"/><path d="M190,80H51c-28.167,0-51,22.834-51,51v98c0,28.167,22.833,51,51,51h139V80z" id="XMLID_885_" fill="#9dd7f5"/><path d="M400,150c0,0-15.714,0-31.428,0c-7.857,0-23.572,7.857-23.572,15.715   c0-7.858-15.715-15.715-23.572-15.715c-15.714,0-31.428,0-31.428,0c0,19.638,16.367,39.262,40,45.27V205c0,19.331-15.67,35-35,35   s-35-15.669-35-35v-74c0-28.166-22.834-51-51-51h-29v200h129c28.167,0,51-22.833,51-51v-33.73C383.633,189.262,400,169.638,400,150   z" id="XMLID_886_" fill="#78b9eb"/><path d="M140,210h-20c0,13.785-11.215,25-25,25H0.363c0.849,7.239,3.209,14.014,6.764,20    H95C119.813,255,140,234.814,140,210z" id="XMLID_888_" fill="#006df0"/><circle cx="130" cy="180" r="10" id="XMLID_887_" fill="#001b3c"/></g><path d="M165,0C74.019,0,0,74.019,0,165s74.019,165,165,165c90.982,0,165-74.019,165-165S255.982,0,165,0z" transform="matrix(0.03030303120613098 0 0 0.03030303120613098 345 82.5)" id="L1_81" fill="#55d4a2"/><path d="M165,0C74.019,0,0,74.019,0,165s74.019,165,165,165c90.982,0,165-74.019,165-165S255.982,0,165,0z" transform="matrix(0.03030303120613098 0 0 0.03030303120613098 82.5 257.5)" id="L1_82" fill="#3e5b96"/><g transform="matrix(-0.1621621549129486 0 0 0.1621621549129486 204.99999731779099 232.5)" id="L1_90"><path d="M340,145l-90,20v40l90,20c0,0,30-10,30-40S340,145,340,145z" id="XMLID_92_" fill="#802812"/><path d="M270,185c0,20-88.203,70-160,70S0,185,0,185s38.203-70,110-70S270,165,270,185z" id="XMLID_102_" fill="#ff9811"/><path d="M335,185 302.431,211.361 322.475,248.162 282.27,259.997 286.672,301.673     244.997,297.271 233.162,337.475 196.361,317.431 170,350 143.639,317.431 106.838,337.475 95.002,297.271 53.327,301.672     57.729,259.997 17.525,248.162 37.569,211.36 5,185 37.569,158.639 17.525,121.838 57.729,110.002 53.328,68.327 95.003,72.729     106.838,32.525 143.639,52.569 170,20 196.361,52.569 233.162,32.525 244.997,72.729 286.673,68.328 282.271,110.003     322.476,121.839 302.431,158.64z" id="XMLID_104_" fill="#ff9811"/><path d="M302.431,211.361 335,185 302.431,158.64 322.476,121.839 282.271,110.003     286.673,68.328 244.997,72.729 233.162,32.525 196.361,52.569 170,20 170,350 196.361,317.431 233.162,337.475 244.997,297.271     286.672,301.673 282.27,259.997 322.475,248.162z" id="XMLID_106_" fill="#ff5023"/><circle cx="50" cy="175" r="10" id="XMLID_108_" fill="#802812"/><path d="M176.537,199.303L141.02,185l-21.213,21.213l14.304,35.516    c0,0,21.213,10.606,37.124-5.303C187.143,220.517,176.537,199.303,176.537,199.303z" id="XMLID_58_" fill="#802812"/></g><g transform="matrix(0.0625 0 0 0.0625 165 165)" id="L1_91"><path d="M160,0C99.249,0,50,49.249,50,110c0,60.752,110,210,110,210s110-149.248,110-210   C270,49.249,220.751,0,160,0z" id="XMLID_953_" fill="#00347b"/><path d="M270,110c0,60.752-110,210-110,210s0-250,0-320C220.751,0,270,49.249,270,110z" id="XMLID_954_" fill="#001b3c"/><path d="M58.147,146.623c2.779,7.613,6.164,15.628,9.994,23.872    C83.489,134.945,118.884,110,160,110c0-2.532,10-10.001,10-10.001S160,93.498,160,90C117.083,90,79.362,112.652,58.147,146.623z" id="XMLID_956_" fill="#78b9eb"/><path d="M84.532,202.643c3.445,6.273,7.015,12.542,10.644,18.741   c14.547-20.094,38.177-33.202,64.824-33.202c0-2.251,10-8.182,10-8.182s-10-8.245-10-11.818   C129.908,168.182,102.88,181.543,84.532,202.643z" id="XMLID_957_" fill="#78b9eb"/><path d="M261.853,146.623c-2.779,7.613-6.165,15.628-9.994,23.872   C236.512,134.945,201.116,110,160,110c0-4.5,0-12,0-20C202.917,90,240.638,112.652,261.853,146.623z" id="XMLID_958_" fill="#006df0"/><path d="M235.468,202.643c-3.444,6.273-7.015,12.542-10.644,18.741   c-14.547-20.094-38.177-33.202-64.824-33.202c0-5.182,0-13.682,0-20C190.092,168.182,217.12,181.543,235.468,202.643z" id="XMLID_959_" fill="#006df0"/></g></defs><g fi:class="KUsePattern"><pattern id="pattern_L1_68" width="350" height="350" patternUnits="userSpaceOnUse"><use xlink:href="#L1_68" x="-350" y="-350"/><use xlink:href="#L1_68" x="0" y="-350"/><use xlink:href="#L1_68" x="350" y="-350"/><use xlink:href="#L1_68" x="-350" y="0"/><use xlink:href="#L1_68" x="0" y="0"/><use xlink:href="#L1_68" x="350" y="0"/><use xlink:href="#L1_68" x="-350" y="350"/><use xlink:href="#L1_68" x="0" y="350"/><use xlink:href="#L1_68" x="350" y="350"/></pattern><rect x="0" y="0" width="100%" height="100%" fill="url(#pattern_L1_68)"/></g><g fi:class="KUsePattern"><pattern id="pattern_L1_77" width="350" height="350" patternUnits="userSpaceOnUse"><use xlink:href="#L1_77" x="-350" y="-350"/><use xlink:href="#L1_77" x="0" y="-350"/><use xlink:href="#L1_77" x="350" y="-350"/><use xlink:href="#L1_77" x="-350" y="0"/><use xlink:href="#L1_77" x="0" y="0"/><use xlink:href="#L1_77" x="350" y="0"/><use xlink:href="#L1_77" x="-350" y="350"/><use xlink:href="#L1_77" x="0" y="350"/><use xlink:href="#L1_77" x="350" y="350"/></pattern><rect x="0" y="0" width="100%" height="100%" fill="url(#pattern_L1_77)"/></g><g fi:class="KUsePattern"><pattern id="pattern_L1_83" width="350" height="350" patternUnits="userSpaceOnUse"><use xlink:href="#L1_83" x="-350" y="-350"/><use xlink:href="#L1_83" x="0" y="-350"/><use xlink:href="#L1_83" x="350" y="-350"/><use xlink:href="#L1_83" x="-350" y="0"/><use xlink:href="#L1_83" x="0" y="0"/><use xlink:href="#L1_83" x="350" y="0"/><use xlink:href="#L1_83" x="-350" y="350"/><use xlink:href="#L1_83" x="0" y="350"/><use xlink:href="#L1_83" x="350" y="350"/></pattern><rect x="0" y="0" width="100%" height="100%" fill="url(#pattern_L1_83)"/></g><g fi:class="KUsePattern"><pattern id="pattern_L1_79" width="350" height="350" patternUnits="userSpaceOnUse"><use xlink:href="#L1_79" x="-350" y="-350"/><use xlink:href="#L1_79" x="0" y="-350"/><use xlink:href="#L1_79" x="350" y="-350"/><use xlink:href="#L1_79" x="-350" y="0"/><use xlink:href="#L1_79" x="0" y="0"/><use xlink:href="#L1_79" x="350" y="0"/><use xlink:href="#L1_79" x="-350" y="350"/><use xlink:href="#L1_79" x="0" y="350"/><use xlink:href="#L1_79" x="350" y="350"/></pattern><rect x="0" y="0" width="100%" height="100%" fill="url(#pattern_L1_79)"/></g><g fi:class="KUsePattern"><pattern id="pattern_L1_81" width="350" height="350" patternUnits="userSpaceOnUse"><use xlink:href="#L1_81" x="-350" y="-350"/><use xlink:href="#L1_81" x="0" y="-350"/><use xlink:href="#L1_81" x="350" y="-350"/><use xlink:href="#L1_81" x="-350" y="0"/><use xlink:href="#L1_81" x="0" y="0"/><use xlink:href="#L1_81" x="350" y="0"/><use xlink:href="#L1_81" x="-350" y="350"/><use xlink:href="#L1_81" x="0" y="350"/><use xlink:href="#L1_81" x="350" y="350"/></pattern><rect x="0" y="0" width="100%" height="100%" fill="url(#pattern_L1_81)"/></g><g fi:class="KUsePattern"><pattern id="pattern_L1_82" width="350" height="350" patternUnits="userSpaceOnUse"><use xlink:href="#L1_82" x="-350" y="-350"/><use xlink:href="#L1_82" x="0" y="-350"/><use xlink:href="#L1_82" x="350" y="-350"/><use xlink:href="#L1_82" x="-350" y="0"/><use xlink:href="#L1_82" x="0" y="0"/><use xlink:href="#L1_82" x="350" y="0"/><use xlink:href="#L1_82" x="-350" y="350"/><use xlink:href="#L1_82" x="0" y="350"/><use xlink:href="#L1_82" x="350" y="350"/></pattern><rect x="0" y="0" width="100%" height="100%" fill="url(#pattern_L1_82)"/></g><g fi:class="KUsePattern"><pattern id="pattern_L1_90" width="350" height="350" patternUnits="userSpaceOnUse"><use xlink:href="#L1_90" x="-350" y="-350"/><use xlink:href="#L1_90" x="0" y="-350"/><use xlink:href="#L1_90" x="350" y="-350"/><use xlink:href="#L1_90" x="-350" y="0"/><use xlink:href="#L1_90" x="0" y="0"/><use xlink:href="#L1_90" x="350" y="0"/><use xlink:href="#L1_90" x="-350" y="350"/><use xlink:href="#L1_90" x="0" y="350"/><use xlink:href="#L1_90" x="350" y="350"/></pattern><rect x="0" y="0" width="100%" height="100%" fill="url(#pattern_L1_90)"/></g><g fi:class="KUsePattern"><pattern id="pattern_L1_91" width="350" height="350" patternUnits="userSpaceOnUse"><use xlink:href="#L1_91" x="-350" y="-350"/><use xlink:href="#L1_91" x="0" y="-350"/><use xlink:href="#L1_91" x="350" y="-350"/><use xlink:href="#L1_91" x="-350" y="0"/><use xlink:href="#L1_91" x="0" y="0"/><use xlink:href="#L1_91" x="350" y="0"/><use xlink:href="#L1_91" x="-350" y="350"/><use xlink:href="#L1_91" x="0" y="350"/><use xlink:href="#L1_91" x="350" y="350"/></pattern><rect x="0" y="0" width="100%" height="100%" fill="url(#pattern_L1_91)"/></g></svg>