<?xml version="1.0" encoding="iso-8859-1"?>
<!-- Generator: Adobe Illustrator 19.0.0, SVG Export Plug-In . SVG Version: 6.00 Build 0)  -->
<svg xmlns="http://www.w3.org/2000/svg" xmlns:xlink="http://www.w3.org/1999/xlink" version="1.1" id="Layer_1" x="0px" y="0px" viewBox="0 0 502 502" style="enable-background:new 0 0 502 502;" xml:space="preserve" width="512" height="512">
<g>
	<g>
		<circle style="fill:#CCD7EB;" cx="251" cy="251" r="241"/>
		<path d="M251,502c-67.045,0-130.076-26.108-177.483-73.516C26.108,381.076,0,318.044,0,251S26.108,120.924,73.517,73.516    C120.924,26.108,183.955,0,251,0s130.076,26.108,177.483,73.516C475.892,120.924,502,183.956,502,251    s-26.108,130.076-73.517,177.484C381.076,475.892,318.045,502,251,502z M251,20C123.626,20,20,123.626,20,251s103.626,231,231,231    s231-103.626,231-231S378.374,20,251,20z"/>
	</g>
	<g>
		<path d="M432.278,189c-3.977,0-7.737-2.388-9.296-6.308c-19.171-48.226-57.996-86.417-106.52-104.779    c-5.166-1.955-7.769-7.727-5.813-12.892c1.954-5.165,7.727-7.768,12.892-5.813c53.766,20.346,96.785,62.661,118.027,116.095    c2.04,5.132-0.467,10.947-5.599,12.987C434.758,188.771,433.508,189,432.278,189z"/>
	</g>
	<g>
		<path d="M284.011,68.782c-0.558,0-1.123-0.047-1.692-0.144C272.049,66.888,261.512,66,251,66c-5.522,0-10-4.477-10-10    s4.478-10,10-10c11.635,0,23.302,0.983,34.68,2.923c5.444,0.928,9.105,6.094,8.177,11.539    C293.025,65.337,288.796,68.782,284.011,68.782z"/>
	</g>
	<g>
		<circle style="fill:#4D93E8;" cx="249" cy="251" r="112.8"/>
		<path d="M249,373.8c-67.712,0-122.8-55.088-122.8-122.8S181.288,128.2,249,128.2S371.8,183.288,371.8,251S316.712,373.8,249,373.8    z M249,148.2c-56.684,0-102.8,46.116-102.8,102.8S192.316,353.8,249,353.8S351.8,307.684,351.8,251S305.684,148.2,249,148.2z"/>
	</g>
</g>















</svg>
