<svg id="Layer_1" enable-background="new 0 0 496.009 496.009" height="512" viewBox="0 0 496.009 496.009" width="512" xmlns="http://www.w3.org/2000/svg"><g><path d="m415.746 228.276-207.707-207.708c-13.264-13.263-30.899-20.568-49.658-20.568-62.547 0-93.945 75.592-49.657 119.883l77.775 77.774c3.124 3.123 8.189 3.123 11.313 0 3.125-3.125 3.125-8.189 0-11.314l-77.775-77.774c-34.148-34.15-10.022-92.569 38.344-92.569 14.485 0 28.102 5.641 38.344 15.883l207.708 207.708c4.637 4.637 4.637 12.182 0 16.818l-207.708 207.708c-26.436 26.436-73.101 19.438-88.443-17.602-8.55-20.642-4.046-43.282 11.756-59.084l133.775-133.774c3.125-3.125 3.125-8.189 0-11.314-3.124-3.123-8.189-3.123-11.313 0l-133.775 133.774c-20.465 20.466-26.299 49.787-15.225 76.521 19.916 48.079 80.391 56.941 114.539 22.793l207.708-207.708c10.875-10.875 10.875-28.571-.001-39.447z"/><path d="m95.125 293.606c-9.354-29.836-9.354-61.377 0-91.213 1.322-4.217-1.024-8.705-5.241-10.027-4.215-1.322-8.705 1.024-10.027 5.24-10.335 32.968-10.335 67.819 0 100.787 1.327 4.232 5.831 6.557 10.027 5.24 4.217-1.321 6.563-5.81 5.241-10.027z"/></g></svg>