<svg height="512" viewBox="0 0 59 58" width="512" xmlns="http://www.w3.org/2000/svg"><g id="Page-1" fill="none" fill-rule="evenodd"><g id="041---Rekt" fill-rule="nonzero"><path id="Shape" d="m40 43.42v10.58c-.0081672 1.1011688-.8988312 1.9918328-2 2-1.1032019-.0032948-1.9967052-.8967981-2-2v-1c-.0081672-1.1011688-.8988312-1.9918328-2-2-1.1032019.0032948-1.9967052.8967981-2 2v3c-.0081672 1.1011688-.8988312 1.9918328-2 2-1.1032019-.0032948-1.9967052-.8967981-2-2v-6c-.0081672-1.1011688-.8988312-1.9918328-2-2-1.1032019.0032948-1.9967052.8967981-2 2v1c-.0081672 1.1011688-.8988312 1.9918328-2 2-1.1032019-.0032948-1.9967052-.8967981-2-2v-8.63z" fill="#e64c3c"/><path id="Shape" d="m38.8 33.64 12.2-.64 6.933 5.2c.2518058.1888544.4.4852427.4.8s-.1481942.6111456-.4.8l-6.933 5.2-38-2v-8l8.7-.46z" fill="#95a5a5"/><path id="Shape" d="m18 40h-5c-.5522847 0-1-.4477153-1-1s.4477153-1 1-1h5c.5522847 0 1 .4477153 1 1s-.4477153 1-1 1z" fill="#547580"/><path id="Rectangle-path" d="m1 37h9v4h-9z" fill="#e57e25"/><path id="Shape" d="m57.93 39.8-.27.2-6.66 5-3-6 3-6 6.66 5 .27.2c.2544703.1871181.4047407.4841388.4047407.8s-.1502704.6128819-.4047407.8z" fill="#7f8c8d"/><path id="Shape" d="m1 44c-.55228475 0-1-.4477153-1-1v-8c0-.5522847.44771525-1 1-1s1 .4477153 1 1v8c0 .5522847-.44771525 1-1 1z" fill="#f29c1f"/><path id="Shape" d="m45.68 20.54c-1.3354584 1.7457036-1.9606771 3.9321825-1.75 6.12.0500824.377884.0734737.7588275.07 1.14.0489311 1.8429758-1.1244184 3.4970726-2.88 4.06-1.8113271.6278593-3.0507028 2.3041944-3.12 4.22v1.99c-.0088529.2560826-.1192942.4981043-.3069283.672604s-.4370206.2671179-.6930717.257396h-14c-.5318426.0163556-.977784-.39837-1-.93v-1.99c-.0692972-1.9158056-1.3086729-3.5921407-3.12-4.22-1.7555816-.5629274-2.9289311-2.2170242-2.88-4.06-.0034737-.3811725.0199176-.762116.07-1.14.2106771-2.1878175-.4145416-4.3742964-1.75-6.12-1.5651635-2.2054512-2.3786333-4.8562407-2.32-7.56 0-10.2 11.06-12.98 18-12.98s18 2.78 18 12.98c.0586333 2.7037593-.7548365 5.3545488-2.32 7.56z" fill="#ecf0f1"/><path id="Shape" d="m28 5.106c-.5328742.00006669-.9721942-.41773146-.9988712-.94993753-.026677-.53220608.3686613-.99184174.8988712-1.04506247 1-.096 1.744-.111 2.1-.111.5522847 0 1 .44771525 1 1s-.4477153 1-1 1c-.258 0-.958.01-1.9.1-.036 0-.069.006-.1.006z" fill="#fff"/><path id="Shape" d="m16 15c-.5522847 0-1-.4477153-1-1 0-5 3.018-8.5 8.727-10.118.5301274-.14746945 1.0797921.16106088 1.2300142.69041488.1502221.52935401-.1554479 1.08061446-.6840142 1.23358512-4.826 1.369-7.273 4.126-7.273 8.194 0 .5522847-.4477153 1-1 1z" fill="#fff"/><g fill="#7f8c8d"><path id="Shape" d="m31 35v4h-2v-4c0-.5522847.4477153-1 1-1s1 .4477153 1 1z"/><path id="Shape" d="m27 35v4h-2v-4c0-.5522847.4477153-1 1-1s1 .4477153 1 1z"/><path id="Shape" d="m35 35v4h-2v-4c0-.5522847.4477153-1 1-1s1 .4477153 1 1z"/></g><path id="Shape" d="m32 31c-.3346327.0003846-.6472789-.1666353-.833-.445l-1.167-1.755-1.168 1.752c-.1982824.297245-.5400812.4661282-.8966441.4430331s-.6737195-.2346599-.832-.555c-.1582805-.32034-.1336383-.7007881.0646441-.9980331l2-3c.1961648-.2622542.5044975-.4166681.832-.4166681s.6358352.1544139.832.4166681l2 3c.206403.3069545.2265054.7027745.0522627 1.0290607s-.5143673.5297385-.8842627.5289393z" fill="#3f5c6c"/><circle id="Oval" cx="23" cy="21" fill="#3f5c6c" r="4"/><circle id="Oval" cx="37" cy="21" fill="#3f5c6c" r="4"/><path id="Shape" d="m57.93 39.8-.27.2h-15.66c-.5522847 0-1-.4477153-1-1s.4477153-1 1-1h15.66l.27.2c.2544703.1871181.4047407.4841388.4047407.8s-.1502704.6128819-.4047407.8z" fill="#547580"/><path id="Shape" d="m9 45.18v-12.36l4-2.82v18z" fill="#f29c1f"/><circle id="Oval" cx="10" cy="30" fill="#f0c419" r="3"/><circle id="Oval" cx="10" cy="48" fill="#f0c419" r="3"/></g></g></svg>