<?xml version="1.0"?>
<svg xmlns="http://www.w3.org/2000/svg" width="512" height="512" viewBox="0 0 128 128"><g><path d="M50.093,91.5,91.517,50.074a22.519,22.519,0,0,0,28.826-28.826L105.917,35.674l-13.042-.549-.549-13.042L106.752,7.657A22.519,22.519,0,0,0,77.926,36.483L36.5,77.907A22.555,22.555,0,1,0,50.093,91.5ZM32.866,108.725H24.9L19.275,103.1V95.134L24.9,89.505h7.962l5.629,5.629V103.1Z" fill="#65727f"/><g><path d="M46.347,69.813a1.743,1.743,0,0,0,1.237-.513l3.181-3.181a1.75,1.75,0,0,0-2.475-2.474l-3.181,3.18a1.751,1.751,0,0,0,1.238,2.988Z"/><path d="M55.648,60.511A1.744,1.744,0,0,0,56.886,60L79.163,37.721a1.748,1.748,0,0,0,.41-1.827A20.762,20.762,0,0,1,103.406,8.528L91.089,20.846a1.746,1.746,0,0,0-.511,1.31L91.127,35.2A1.749,1.749,0,0,0,92.8,36.873l13.042.549a1.737,1.737,0,0,0,1.31-.511l6.114-6.113a1.75,1.75,0,1,0-2.475-2.475l-5.57,5.571-10.667-.45-.45-10.667L107.989,8.9a1.749,1.749,0,0,0-.647-2.885,24.267,24.267,0,0,0-31.417,30L54.411,57.523a1.751,1.751,0,0,0,1.237,2.988Z"/><path d="M121.99,20.658a1.749,1.749,0,0,0-2.885-.647L116.221,22.9A1.749,1.749,0,1,0,118.7,25.37l.777-.776A20.762,20.762,0,0,1,92.106,48.427a1.749,1.749,0,0,0-1.827.41L48.856,90.26a1.751,1.751,0,0,0-.41,1.827A20.806,20.806,0,1,1,35.913,79.554a1.748,1.748,0,0,0,1.827-.41l4.019-4.019a1.75,1.75,0,1,0-2.475-2.475l-3.255,3.255A24.305,24.305,0,1,0,52.1,91.971l39.895-39.9a24.267,24.267,0,0,0,30-31.417Z"/><path d="M32.865,87.755H24.9a1.746,1.746,0,0,0-1.237.513L18.037,93.9a1.754,1.754,0,0,0-.513,1.238V103.1a1.75,1.75,0,0,0,.513,1.237l5.63,5.63a1.75,1.75,0,0,0,1.237.513h7.961a1.754,1.754,0,0,0,1.238-.513l5.629-5.63a1.746,1.746,0,0,0,.513-1.237V95.135a1.75,1.75,0,0,0-.513-1.238L34.1,88.268A1.75,1.75,0,0,0,32.865,87.755Zm3.88,14.616-4.6,4.605H25.629l-4.605-4.605V95.859l4.605-4.6h6.512l4.6,4.6Z"/><path d="M77.066,50.938l-3.817,3.818a1.75,1.75,0,1,0,2.475,2.474l3.817-3.817a1.75,1.75,0,0,0-2.475-2.475Z"/><path d="M66.562,61.442l-11.594,11.6a1.75,1.75,0,0,0,2.474,2.475l11.6-11.595a1.75,1.75,0,0,0-2.475-2.475Z"/></g></g></svg>
