<?xml version="1.0" encoding="iso-8859-1"?>
<!-- Generator: Adobe Illustrator 19.0.0, SVG Export Plug-In . SVG Version: 6.00 Build 0)  -->
<svg version="1.1" id="Capa_1" xmlns="http://www.w3.org/2000/svg" xmlns:xlink="http://www.w3.org/1999/xlink" x="0px" y="0px"
	 viewBox="0 0 512 512" style="enable-background:new 0 0 512 512;" xml:space="preserve">
<g>
	<circle style="fill:#FDD36E;" cx="256" cy="255.993" r="255.993"/>
	<circle style="fill:#FDD36E;" cx="256" cy="255.993" r="255.993"/>
</g>
<g>
	<path style="fill:#66BD6D;" d="M250.718,396.893c-19.564,10.299-35.29,23.399-47.718,36.678c-1.925,2.056-5.328,0.269-4.776-2.493
		c5.755-28.831,15.581-48.566,23.507-60.697c2.35-3.596-4.063-6.824-8.384-4.233c-29.976,17.97-50.211,38.763-63.805,57.777
		c-0.829,1.16-2.663,0.414-2.462-0.998c4.483-31.509,11.936-53.159,17.965-66.566c1.818-4.045-3.145-7.674-6.489-4.761
		c-22.533,19.63-37.953,42.255-48.462,63.132c0-0.021,0.001-0.042,0.001-0.064c0-27.72-7.174-53.148-19.12-72.996
		c-1.436-2.386-3.866-2.386-5.302,0c-13.149,21.848-19.119,47.869-19.119,73.06c-10.415-20.69-25.663-43.094-47.869-62.6
		C45.006,417.035,97.164,468.7,162.413,494.341c21.582-7.134,41.903-17.04,60.513-29.338c11.249-31.338,23.626-51.188,32.432-62.661
		C257.76,399.212,254.208,395.056,250.718,396.893z"/>
	<path style="fill:#66BD6D;" d="M445.732,414.729c0-25.192-5.97-51.212-19.118-73.06c-1.436-2.386-3.866-2.386-5.302,0
		c-11.946,19.848-19.12,45.276-19.12,72.996c0,0.021,0.001,0.042,0.001,0.064c-10.508-20.877-25.928-43.503-48.462-63.132
		c-3.344-2.913-8.308,0.716-6.489,4.761c6.029,13.408,13.481,35.057,17.965,66.566c0.201,1.412-1.633,2.158-2.462,0.998
		c-13.594-19.014-33.829-39.807-63.805-57.777c-4.32-2.59-10.733,0.637-8.384,4.233c7.928,12.132,17.753,31.866,23.507,60.697
		c0.551,2.762-2.852,4.55-4.777,2.493c-12.428-13.279-28.153-26.379-47.717-36.678c-3.489-1.837-7.042,2.319-4.641,5.447
		c8.806,11.474,21.183,31.322,32.433,62.661c18.564,12.269,38.831,22.155,60.353,29.286
		c65.046-25.602,117.063-77.076,143.419-141.738C471.185,371.957,456.073,394.186,445.732,414.729z"/>
</g>
<path style="fill:#845646;" d="M225.658,14.072v496.117c20.293,2.397,40.383,2.397,60.676,0V14.072c0-6.07-3.85-11.226-9.235-13.2
	C270.14,0.303,263.104,0,255.997,0c-7.107,0-14.143,0.303-21.103,0.872C229.509,2.846,225.658,8.002,225.658,14.072z"/>
<path style="fill:#724937;" d="M277.1,0.872C270.14,0.303,263.104,0,255.997,0c-7.107,0-14.143,0.303-21.103,0.872
	c-5.385,1.974-9.235,7.131-9.235,13.2v278.71h60.676V14.072C286.335,8.002,282.485,2.846,277.1,0.872z"/>
<path style="fill:#AA7971;" d="M463.712,258.148H48.281c-12.752,0-23.089-10.338-23.089-23.089V47.255
	c0-12.752,10.338-23.089,23.089-23.089h415.431c12.752,0,23.089,10.338,23.089,23.089v187.804
	C486.801,247.811,476.464,258.148,463.712,258.148z"/>
<path style="fill:#A06F64;" d="M79.159,235.059V47.255c0-12.752,10.338-23.089,23.089-23.089H48.281
	c-12.752,0-23.089,10.338-23.089,23.089v187.804c0,12.752,10.338,23.089,23.089,23.089h53.968
	C89.497,258.147,79.159,247.811,79.159,235.059z"/>
<g>
	<path style="fill:#CDF3F9;" d="M154.673,102.259h-19.086v25.991c0,6.104-14.963,6.147-14.963,0V67.253
		c0-1.598,0.783-2.748,2.351-3.453c4.46-2.002,12.612-1.228,12.612,3.453v23.497h19.086V67.253c0-1.598,0.782-2.748,2.35-3.453
		c4.365-1.958,12.612-1.309,12.612,3.453v60.997c0,1.534-0.784,2.686-2.35,3.453c-4.554,2.229-12.612,1.118-12.612-3.453V102.259z"
		/>
	<path style="fill:#CDF3F9;" d="M175.387,125.661c19.422-61.01,16.362-60.007,21.436-62.244c5.352-2.359,14.382-1.403,15.969,3.74
		c17.793,58.273,18.127,58.697,18.127,59.559c0,5.191-12.731,8.97-14.482,3.357l-3.261-11.989H192.94
		c-3.344,11.008-2.703,13.025-5.035,14.146C184.46,133.892,174.054,130.963,175.387,125.661z M210.01,106.575l-7.002-25.703
		l-7.001,25.703H210.01z"/>
	<path style="fill:#CDF3F9;" d="M238.014,64.088c1.021-0.895,2.364-1.343,4.028-1.343c16.993,0.262,34.31-3.421,40.713,11.797
		c3.419,8.137,5.177,32.992-21.818,32.992h-9.495v20.716c0,6.104-14.963,6.147-14.963,0
		C237.004,63.251,235.261,66.498,238.014,64.088z M251.441,75.789v20.236c8.08-0.442,18.127,2.608,18.127-9.591
		c-0.129-0.429,1.314-10.647-8.632-10.647h-9.495V75.789z"/>
	<path style="fill:#CDF3F9;" d="M292.584,64.088c1.021-0.895,2.364-1.343,4.028-1.343c17.769,0.274,22.024-0.726,28.724,1.199
		c2.781,0.8,5.18,2.062,7.193,3.788c8.27,7.085,9.582,26.388-0.239,34.718c-7.485,6.352-17.819,4.872-26.278,5.084v20.716
		c0,6.152-14.963,6.105-14.963,0C291.575,63.251,289.832,66.498,292.584,64.088z M306.012,75.789v20.236
		c8.08-0.442,18.127,2.608,18.127-9.591c-0.087-0.767,0.612-5.32-2.302-8.296c-1.535-1.566-3.645-2.35-6.33-2.35H306.012z"/>
	<path style="fill:#CDF3F9;" d="M360.391,102.834c-20.91-34.95-20.044-32.536-20.044-33.951c0-4.505,10.244-7.593,12.852-5.419
		c1.667,1.387,1.458,2.077,15.059,26.71c14.496-25.312,12.971-27.429,17.647-27.429c4.499,0,11.781,3.567,9.975,7.193
		c-21.04,35.233-20.142,32.974-20.142,34.239v24.073c0,6.124-14.962,6.134-14.962,0
		C360.646,103.239,361.111,103.919,360.391,102.834z"/>
	<path style="fill:#CDF3F9;" d="M116.646,185.335c13.609,0.475,15.834-1.166,17.743,1.774c1.385,2.137,1.643,5.12,0.096,7.865
		c-1.74,3.08-4.491,1.384-17.839,1.87v16.305c25.139,0.584,27.051-1.461,29.059,1.966c2.258,3.857,1.256,11.078-3.357,11.078
		c-34.753-0.357-35.141,0.854-38.65-1.151c-3.602-2.058-1.338-0.316-2.015-64.354c0-1.535,0.672-2.686,2.015-3.453
		c1.343-0.768,2.845-1.151,4.508-1.151c34.579,0.644,35.753-1.535,37.596,2.062c2.101,4.11,1.021,10.981-3.453,10.981h-25.702
		L116.646,185.335L116.646,185.335z"/>
	<path style="fill:#CDF3F9;" d="M148.774,218.999c19.421-61.01,16.362-60.007,21.435-62.244c1.885-0.83,3.947-1.247,6.186-1.247
		c2.238,0,4.3,0.417,6.187,1.247c1.886,0.832,3.084,2.079,3.597,3.74c19.373,63.448,19.139,59.68,17.216,62.004
		c-2.355,2.848-8.358,4.728-11.797,3.069c-2.347-1.128-1.717-3.225-5.035-14.146h-20.236c-3.345,11.008-2.703,13.025-5.035,14.146
		C157.138,227.571,147.44,224.304,148.774,218.999z M183.397,199.914l-7.002-25.703l-7.001,25.703H183.397z"/>
	<path style="fill:#CDF3F9;" d="M237.822,210.32c1.294-1.903,1.24-5.43-1.438-7.769c-8.522-7.426-28.148-8.719-28.148-27.189
		c0-6.954,2.991-12.044,7.769-15.298c9.705-6.603,27.184-5.36,33.615-0.575c3.891,2.899,2.079,9.148-1.007,11.462
		c-4.154,3.117-6.843-2.782-15.825-2.782c-3.452,0-5.915,0.592-7.385,1.774c-3.135,2.523-2.783,5.962,0.048,8.009
		c2.986,2.163,6.596,3.645,12.948,6.474c21.218,9.473,19.398,35.482,0.815,41.336c-14.736,4.641-36.179-3.153-32.177-13.715
		c0.685-1.81,1.826-3.499,3.453-4.604c4.304-2.923,6.969,2.288,13.14,5.179C227.585,214.481,235.175,214.216,237.822,210.32z"/>
	<path style="fill:#CDF3F9;" d="M305.965,158.194c2.087,4.177,1.052,11.317-3.453,11.317h-13.235v52.079
		c0,1.534-0.784,2.686-2.35,3.453c-1.567,0.767-3.277,1.151-5.131,1.151c-1.856,0-3.565-0.384-5.132-1.151
		c-1.567-0.767-2.35-1.918-2.35-3.453v-52.079c-12.133-0.515-14.693,1.309-16.593-2.014c-2.232-3.91-1.311-11.413,3.357-11.413
		C303.733,156.764,304.115,154.501,305.965,158.194z"/>
	<path style="fill:#CDF3F9;" d="M327.927,185.335c13.609,0.475,15.834-1.166,17.743,1.774c0.768,1.184,1.15,2.542,1.15,4.076
		c0,1.28-0.352,2.542-1.055,3.789c-1.74,3.08-4.491,1.384-17.839,1.87v16.305c25.139,0.584,27.051-1.461,29.06,1.966
		c2.258,3.857,1.256,11.078-3.358,11.078c-34.753-0.357-35.141,0.854-38.65-1.151c-1.343-0.767-2.015-1.918-2.015-3.453
		c0.669-63.278-1.669-62.25,2.015-64.354c3.507-2.004,3.904-0.794,38.65-1.151c6.1,0,5.958,13.043,0,13.043h-25.702L327.927,185.335
		L327.927,185.335z"/>
	<path style="fill:#CDF3F9;" d="M365.904,157.427c2.137-2.304,4.231-0.963,23.21-1.343c5.778,0,12.088,0.948,16.736,4.412
		c10.297,7.689,9.649,30.046-4.748,35.582c12.472,22.816,12.181,21.45,12.181,22.921c0,2.072-1.469,4.009-3.069,5.323
		c-2.432,1.999-6.082,3.255-9.064,1.822c-2.224-1.069-1.46-1.549-15.201-27.67h-6.33v23.114c0,6.152-14.963,6.105-14.963,0
		C365.081,157.103,363.63,159.879,365.904,157.427z M379.62,169.127v17.839c9.932-0.444,18.127,2.272,18.127-8.919
		C397.746,166.84,389.484,169.569,379.62,169.127z"/>
</g>
<path style="fill:#96DFF8;" d="M360.522,371.014c-59.871,11.141-90.049,64.789-90.049,64.789c-15.046,24.024-12.332,54.764,5,75.452
	c42.909-3.228,82.86-17.043,117.266-38.826c7.111-20.139,12.457-48.307,4.128-78.654
	C392.515,377.914,376.691,368.005,360.522,371.014z"/>
<path style="fill:#80CBF0;" d="M360.522,371.014c-59.871,11.141-90.049,64.789-90.049,64.789
	c-15.1,24.111-12.262,54.848,4.99,75.452c3.685-0.277,7.344-0.647,10.983-1.079c-5.577-16.998-2.547-39.102,9.538-58.399
	c0,0,30.761-53.284,81.612-70.073c4.3-1.42,8.437-1.653,12.15-0.865C382.571,372.976,371.628,368.947,360.522,371.014z"/>
<g>
	<path style="fill:#CDF3F9;" d="M306.734,395.625c27.789,19.375,60.165,31.799,94.256,35.226c0.31-7.428-0.012-15.198-1.2-23.193
		c-25.538-3.089-49.825-11.652-71.916-25.476C320.022,386.182,312.978,390.805,306.734,395.625z"/>
	<path style="fill:#CDF3F9;" d="M284.441,416.766c-7.834,9.049-12.381,16.36-13.62,18.44c34.11,26.571,73.911,40.693,113.082,42.578
		c2.983-1.724,5.924-3.512,8.829-5.352c1.869-5.294,3.617-11.137,5.026-17.434C359.91,456.218,319.219,444.126,284.441,416.766z"/>
	<path style="fill:#CDF3F9;" d="M260.837,465.329c-0.785,10.794,1.143,21.631,5.56,31.421c8.099,4.846,16.519,9.104,25.177,12.764
		c15.315-2.13,30.196-5.611,44.52-10.326C314.117,495.032,287.348,485.608,260.837,465.329z"/>
</g>
<g>
	<path style="fill:#96DFF8;" d="M260.834,465.327c-0.785,10.801,1.141,21.638,5.543,31.412c6.455,3.863,12.845,7.205,19.099,10.094
		c-2.018-7.963-2.278-16.861-0.727-25.971C276.844,476.566,268.827,471.441,260.834,465.327z"/>
	<path style="fill:#96DFF8;" d="M330.747,410.056c6.083-5.483,12.892-10.845,20.373-15.61c-7.987-3.477-15.742-7.567-23.248-12.265
		c-7.85,4.002-14.895,8.625-21.138,13.444C314.813,401.258,322.865,406.03,330.747,410.056z"/>
	<path style="fill:#96DFF8;" d="M295.868,451.97c0.04-0.063,0.076-0.128,0.115-0.191c0,0,4.57-7.912,13.092-18.596
		c-8.516-4.726-16.735-10.201-24.634-16.416c-7.834,9.049-12.382,16.36-13.62,18.44C279.108,441.662,287.373,447.144,295.868,451.97
		z"/>
</g>
<path style="fill:#FC7A95;" d="M250.535,435.803c0,0-30.177-53.649-90.049-64.789c-16.168-3.009-31.993,6.902-36.345,22.76
	c-9.336,34.019-1.49,65.299,6.766,85.601c34.023,19.094,72.847,30.636,114.214,32.366
	C262.822,491.051,265.7,460.017,250.535,435.803z"/>
<g>
	<path style="fill:#FE6782;" d="M245.085,511.74c0.221-0.258,0.454-0.498,0.672-0.761c-0.605,0.254-1.214,0.484-1.824,0.717
		C244.316,511.714,244.701,511.724,245.085,511.74z"/>
	<path style="fill:#FE6782;" d="M147.808,376.207c0.513-1.87,1.191-3.654,2.005-5.347c-12,1.881-22.293,10.603-25.672,22.914
		c-9.336,34.019-1.489,65.299,6.766,85.601c15.36,8.62,31.689,15.715,48.799,21.049C156.673,480.91,134.347,425.258,147.808,376.207
		z"/>
</g>
<path style="fill:#FBB659;" d="M281.742,361.58c-12.106-11.132-30.777-11.132-42.884,0c-44.83,41.219-41.932,102.704-41.932,102.704
	c0,17.05,6.745,32.737,17.697,44.357c30.929,5.027,62.555,4.378,93.061-1.877c9.942-11.407,15.99-26.333,15.99-42.48
	C323.673,464.285,326.572,402.8,281.742,361.58z"/>
<path style="fill:#F7A15F;" d="M238.858,361.58c-44.83,41.219-41.932,102.704-41.932,102.704c0,17.09,6.769,32.758,17.704,44.358
	c9.25,1.503,18.66,2.528,28.213,3.012c-9.713-11.835-15.817-28.793-15.817-47.37c0,0-2.21-61.485,31.976-102.704
	c2.891-3.486,6.273-5.879,9.838-7.182C258.586,351.541,247.174,353.935,238.858,361.58z"/>
<path style="fill:#FDD36E;" d="M309.578,399.801c-3.155-6.686-7.008-13.434-11.716-19.996c-2.17,0.998-4.75,1.647-8.093,1.647
	c-14.737,0-14.737-12.541-29.473-12.541c-14.736,0-14.736,12.541-29.471,12.541c-3.34,0-5.919-0.648-8.088-1.644
	c-4.709,6.563-8.561,13.311-11.716,19.996c6.256,3.652,9.256,10.076,19.803,10.076c14.736,0,14.736-12.541,29.471-12.541
	c14.737,0,14.737,12.541,29.473,12.541C300.32,409.88,303.318,403.453,309.578,399.801z"/>
<path style="fill:#FBB659;" d="M234.605,409.569c3.768-12.949,9.393-26.614,17.769-39.093c-7.531,3.363-10.067,10.975-21.548,10.975
	c-3.34,0-5.919-0.648-8.088-1.644c-4.399,6.132-8.36,12.886-11.716,19.996C217.46,403.562,221.806,411.801,234.605,409.569z"/>
<path style="fill:#FDD36E;" d="M288.253,425.767c-14.737,0-14.737,12.541-29.473,12.541c-14.737,0-14.737-12.541-29.472-12.541
	c-15.004,0-14.755,13.007-30.244,12.52c-1.593,9.297-2.416,18.697-2.078,28.272c17.026,2.142,16.764-12.364,32.322-12.364
	c14.737,0,14.737,12.541,29.472,12.541c14.737,0,14.737-12.541,29.473-12.541c14.738,0,14.738,12.541,29.475,12.541
	c2.286,0,4.217-0.303,5.904-0.813c0.223-8.73-0.329-17.447-2.143-27.922c-1.142,0.198-2.387,0.307-3.761,0.307
	C302.991,438.308,302.991,425.767,288.253,425.767z"/>
<path style="fill:#FBB659;" d="M230.684,425.806c-16.227-0.918-15.709,12.981-31.62,12.481c-0.345,2.688-2.591,13.756-2.078,28.272
	c16.217,2.041,16.76-11.013,30.218-12.259C227.548,447.349,228.443,437.29,230.684,425.806z"/>
<path style="fill:#FDD36E;" d="M289.769,495.164c-14.737,0-14.737-12.541-29.473-12.541c-14.736,0-14.736,12.541-29.471,12.541
	c-15.346,0-14.858-13.654-31.197-12.473c2.934,9.812,8.154,18.677,15.017,25.953c12.851,2.087,26.019,3.219,39.436,3.318
	c3.703-1.196,8.297-1.178,11.814-0.185c14.257-0.542,28.219-2.231,41.787-5.012c6.017-6.903,10.607-15.097,13.292-24.073
	C304.733,481.512,305.031,495.164,289.769,495.164z"/>
<path style="fill:#FBB659;" d="M233.009,495.057c-17.239,1.61-16.332-13.599-33.38-12.367c3.372,11.276,9.104,19.745,14.984,25.948
	c9.251,1.504,18.661,2.53,28.215,3.014C238.911,506.879,235.584,501.27,233.009,495.057z"/>
<circle style="fill:#FC7A95;" cx="135.043" cy="451.549" r="10.532"/>
<g>
	<circle style="fill:#FC90AA;" cx="166.472" cy="482.968" r="10.532"/>
	<circle style="fill:#FC90AA;" cx="150.023" cy="405.15" r="10.532"/>
</g>
<path style="fill:#FC7A95;" d="M144.123,396.425c-5.949,4.031-6.258,12.743-0.422,17.133
	C143.458,408.023,143.568,402.295,144.123,396.425z"/>
<g>
	<circle style="fill:#FC90AA;" cx="181.442" cy="436.569" r="10.532"/>
	<path style="fill:#FC90AA;" d="M206.943,390.331c-4.895-3.299-10.194-6.419-15.909-9.199c-6,3.578-6.841,11.708-2.063,16.486
		C195.546,404.192,206.804,399.585,206.943,390.331z"/>
</g>
<path style="fill:#58AF5C;" d="M366.034,487.185c5.772-28.471,15.503-48.007,23.369-60.046c2.35-3.596-4.063-6.823-8.384-4.233
	c-29.976,17.97-50.211,38.763-63.805,57.777c-0.83,1.16-2.663,0.414-2.462-0.998c4.484-31.509,11.937-53.159,17.965-66.567
	c1.818-4.045-3.145-7.674-6.489-4.761c-22.533,19.63-37.954,42.255-48.462,63.132c0-0.021,0.001-0.042,0.001-0.064
	c0-27.72-7.174-53.148-19.12-72.996c-1.436-2.386-3.866-2.386-5.302,0c-11.946,19.849-19.12,45.276-19.12,72.996
	c0,0.021,0.001,0.042,0.001,0.064c-10.509-20.877-25.928-43.503-48.462-63.132c-3.344-2.913-8.307,0.717-6.489,4.761
	c5.917,13.161,13.207,34.26,17.714,64.831c0.274,1.86-2.12,2.845-3.228,1.325c-13.581-18.628-33.55-38.842-62.788-56.369
	c-4.321-2.59-10.734,0.637-8.384,4.233c7.868,12.041,17.605,31.571,23.376,60.049C215.337,520.262,296.625,520.281,366.034,487.185z
	"/>
<path style="fill:#469B46;" d="M130.974,422.905c-4.321-2.59-10.734,0.637-8.384,4.233c7.868,12.041,17.605,31.571,23.376,60.049
	c13.466,6.42,27.582,11.691,42.221,15.702c-9.045-24.021-18.396-43.292-26.991-58.427
	C152.421,437.038,142.416,429.765,130.974,422.905z"/>
<g>
</g>
<g>
</g>
<g>
</g>
<g>
</g>
<g>
</g>
<g>
</g>
<g>
</g>
<g>
</g>
<g>
</g>
<g>
</g>
<g>
</g>
<g>
</g>
<g>
</g>
<g>
</g>
<g>
</g>
</svg>
