<svg height="512" viewBox="0 0 512 512" width="512" xmlns="http://www.w3.org/2000/svg"><g id="flat"><path d="m24 368h464v48h-464z" fill="#02a437"/><path d="m24 120h464v256h-464z" fill="#029532"/><path d="m72 344h334a88.278 88.278 0 0 1 50-50v-92a88.278 88.278 0 0 1 -50-50h-334z" fill="#ffb3b3"/><path d="m326.544 242.648-69.352 69.352-69.351-69.352a33.6 33.6 0 0 1 -9.841-23.757 33.6 33.6 0 0 1 33.6-33.6 33.6 33.6 0 0 1 23.758 9.841l21.836 21.836 21.837-21.836a33.6 33.6 0 0 1 23.757-9.841 33.6 33.6 0 0 1 33.6 33.6 33.6 33.6 0 0 1 -9.844 23.757z" fill="#e82f3e"/><path d="m24 408h464v32h-464z" fill="#029532"/><path d="m72 344a32 32 0 0 1 32-32h40v32z" fill="#ffb3b3"/><path d="m72 120a32 32 0 0 1 32-32h32v224h-32a32 32 0 0 0 -32 32z" fill="#027e2a"/><path d="m104 376h-80v-256h48v224h32z" fill="#027226"/><path d="m136 344v32h-32a32 32 0 0 1 -32-32z" fill="#029532"/></g></svg>