<svg id="Capa_1" enable-background="new 0 0 511.247 511.247" height="512" viewBox="0 0 511.247 511.247" width="512" xmlns="http://www.w3.org/2000/svg"><g><g><g id="XMLID_159_"><g><path d="m499.314 365.183c2.97 6.49 4.4 13.37 4.4 20.16 0 14.56-6.56 28.79-18.59 38.22l-.35.28c-134.55 105.51-323.75 105.51-458.3 0l-.35-.28c-17.65-13.84-23.52-37.98-14.19-58.38 8.02-17.52 25.44-28.34 44.13-28.34 3.26 0 6.56.33 9.86 1.01l176.979 43.775 202.421-43.775c22.17-4.59 44.57 6.75 53.99 27.33z" fill="#b3dafe"/></g></g><g id="XMLID_161_"><path d="m382.744 8.273h-254.24c-22.27 0-39.87 18.88-38.31 41.1l20.19 287 92.938 83.267h138.076l59.465-83.267 20.19-287c1.561-22.22-16.039-41.1-38.309-41.1z" fill="#f9f7f8"/></g><g id="XMLID_162_"><g><path d="m223.854 366.663-6.39-358.39h-68.03l17.28 348.31v.02l.007.001.394 23.761 57.59 3.124-.853-16.817.002.001z" fill="#fe646f"/><path d="m344.534 356.583 17.28-348.31h-68.03l-6.39 358.39v.01 27.649s55.778-9.197 55.469-9.552 1.671-28.187 1.671-28.187z" fill="#fe646f"/><path d="m367.93 461.411c8.118-2.769 16.206-5.862 24.056-9.201 13.2-5.627 22.031-18.02 23.048-32.354l5.396-76.621-177.527 38.392-152.03-37.604 5.341 75.844c1.017 14.323 9.848 26.716 23.063 32.35 7.834 3.332 15.922 6.425 24.058 9.2 36.203 12.312 73.982 18.555 112.289 18.555s76.086-6.242 112.306-18.561z" fill="#8ac9fe"/><path d="m400.864 336.373-5.78 82.08c-.48 6.76-4.7 12.7-10.94 15.36-7.43 3.16-14.99 6.05-22.67 8.67-34.11 11.6-69.72 17.49-105.85 17.49s-71.74-5.89-105.85-17.49c-7.68-2.62-15.24-5.51-22.67-8.67-6.24-2.66-10.46-8.6-10.94-15.36l-5.78-82.08c10.79 4.96 48.53 18.17 56.33 20.23 18.74 4.95 37.83 8.32 57.14 10.07 10.53.97 21.13 1.45 31.77 1.45s21.24-.48 31.77-1.45c19.31-1.75 38.4-5.12 57.14-10.07 7.8-2.06 45.54-15.27 56.33-20.23z" fill="#60b7ff"/><g><path d="m225.435 425.931c34.11 11.6 69.72 17.49 105.85 17.49 10.708 0 21.396-.528 31.987-1.558.001.004 0-.002 0 .002-34.656 12.008-70.883 18.107-107.649 18.107-36.13 0-71.74-5.89-105.85-17.49-7.68-2.62-15.24-5.51-22.67-8.67-6.24-2.66-10.46-8.6-10.94-15.36l-5.78-82.08c10.79 4.96 48.53 18.17 56.33 20.23 7.375 1.948 14.799 3.651 22.275 5.107l1.613 24.446c1.095 16.593 11.742 31.042 27.273 36.984 3.106 1.189 5.799 2.191 7.561 2.792z" fill="#26a6fe"/></g></g></g><g fill="#f9f7f8"><path d="m261.87 397.862.318.979c.879 2.706 3.401 4.538 6.246 4.538h1.029c6.362 0 9.008 8.141 3.86 11.881l-.832.605c-2.302 1.672-3.265 4.637-2.386 7.343l.318.979c1.966 6.051-4.959 11.083-10.107 7.343l-.832-.605c-2.302-1.672-5.419-1.672-7.721 0l-.832.605c-5.147 3.74-12.073-1.292-10.107-7.343l.318-.979c.879-2.706-.084-5.671-2.386-7.343l-.832-.605c-5.147-3.74-2.502-11.881 3.86-11.881h1.029c2.845 0 5.367-1.832 6.246-4.538l.318-.979c1.966-6.051 10.527-6.051 12.493 0z"/><path d="m346.98 388.407.284.874c.786 2.418 3.039 4.055 5.582 4.055h.919c5.685 0 8.049 7.275 3.45 10.617l-.744.54c-2.057 1.494-2.918 4.144-2.132 6.562l.284.874c1.757 5.407-4.432 9.903-9.031 6.562l-.744-.54c-2.057-1.494-4.842-1.494-6.899 0l-.744.54c-4.6 3.342-10.788-1.155-9.031-6.562l.284-.874c.786-2.418-.075-5.067-2.132-6.562l-.744-.54c-4.6-3.342-2.236-10.617 3.45-10.617h.919c2.543 0 4.796-1.637 5.582-4.055l.284-.874c1.756-5.407 9.406-5.407 11.163 0z"/><path d="m165.267 388.407-.284.874c-.786 2.418-3.039 4.055-5.582 4.055h-.919c-5.685 0-8.049 7.275-3.45 10.617l.744.54c2.057 1.494 2.918 4.144 2.132 6.562l-.284.874c-1.757 5.407 4.432 9.903 9.031 6.562l.744-.54c2.057-1.494 4.842-1.494 6.899 0l.744.54c4.6 3.342 10.788-1.155 9.031-6.562l-.284-.874c-.786-2.418.075-5.067 2.132-6.562l.744-.54c4.6-3.342 2.236-10.617-3.45-10.617h-.919c-2.543 0-4.796-1.637-5.582-4.055l-.284-.874c-1.756-5.407-9.406-5.407-11.163 0z"/></g></g><g><path d="m506.129 362.064c-10.944-23.917-36.569-36.892-62.325-31.552l-35.533 7.367 15.546-220.935c.291-4.132-2.823-7.717-6.955-8.008-4.146-.294-7.717 2.824-8.008 6.955l-15.163 215.491c-9.322 4.14-18.842 7.87-28.359 11.108-4.241 1.443-8.507 2.796-12.791 4.068l2.885-58.136c.205-4.137-2.982-7.657-7.119-7.862-4.169-.219-7.658 2.982-7.863 7.119l-3.127 63.013c-13.919 3.439-28.03 5.984-42.274 7.637l6.107-342.552h52.786l-11.903 239.884c-.205 4.137 2.982 7.657 7.119 7.862.127.006.253.009.378.009 3.972 0 7.286-3.118 7.485-7.128l11.94-240.627h13.793c8.667 0 16.694 3.492 22.604 9.832 5.909 6.339 8.828 14.592 8.22 23.237l-2.473 35.15c-.291 4.132 2.823 7.717 6.955 8.008 4.151.299 7.717-2.823 8.008-6.955l2.473-35.15c.891-12.656-3.56-25.237-12.21-34.518-8.651-9.281-20.889-14.604-33.576-14.604h-254.25c-12.687 0-24.925 5.323-33.576 14.604-8.65 9.281-13.101 21.862-12.21 34.518l15.541 220.868c.278 3.953 3.571 6.974 7.474 6.974.177 0 .355-.006.534-.019 4.132-.291 7.246-3.876 6.955-8.008l-15.542-220.87c-.608-8.646 2.311-16.898 8.22-23.237 5.909-6.34 13.937-9.832 22.604-9.832h13.793l16.414 330.782c-4.284-1.272-8.55-2.625-12.791-4.068-9.516-3.238-19.037-6.968-28.359-11.107l-2.095-29.783c-.291-4.132-3.882-7.25-8.008-6.955-4.132.291-7.246 3.876-6.955 8.008l2.479 35.226-35.533-7.367c-25.747-5.339-51.381 7.636-62.325 31.553-10.816 23.642-4.082 51.358 16.371 67.397l.354.278c33.712 26.437 71.281 46.808 111.664 60.548 39.36 13.392 80.445 20.183 122.116 20.183s82.756-6.791 122.116-20.183c40.383-13.741 77.952-34.112 111.67-60.553l.343-.27c20.458-16.041 27.193-43.758 16.376-67.4zm-226.114-2.331c-8.099.578-16.231.885-24.392.885s-16.293-.307-24.392-.885l-6.131-343.957h61.048zm-122.704-343.957h52.786l6.107 342.552c-14.244-1.653-28.355-4.198-42.274-7.637zm-16.228 340.914c36.913 12.56 75.45 18.928 114.541 18.928s77.628-6.368 114.541-18.928c7.478-2.544 14.954-5.386 22.343-8.474l-4.905 69.71c-.28 3.982-2.73 7.424-6.393 8.983-7.256 3.087-14.709 5.938-22.153 8.471-33.331 11.341-68.131 17.092-103.433 17.092s-70.102-5.75-103.433-17.092c-7.446-2.534-14.898-5.384-22.152-8.471-3.663-1.559-6.113-5-6.394-8.982l-4.906-69.721c7.39 3.089 14.865 5.939 22.344 8.484zm339.408 60.977-.343.27c-32.38 25.392-68.461 44.957-107.24 58.151-37.801 12.862-77.261 19.384-117.284 19.384s-79.483-6.522-117.284-19.384c-38.779-13.195-74.86-32.76-107.234-58.147l-.354-.278c-14.981-11.749-19.913-32.045-11.992-49.357 8.014-17.513 26.78-27.014 45.64-23.106l39.672 8.225 4.612 65.555c.679 9.629 6.611 17.957 15.482 21.731 7.594 3.232 15.397 6.216 23.194 8.869 34.891 11.872 71.316 17.892 108.265 17.892s73.374-6.02 108.265-17.892c7.795-2.652 15.599-5.636 23.195-8.869 8.871-3.776 14.803-12.103 15.481-21.732l4.613-65.555 39.671-8.225c18.864-3.911 37.627 5.593 45.64 23.106 7.92 17.312 2.988 37.609-11.999 49.362z"/><path d="m233.518 421.33.281.204-.108.334c-1.919 5.905.088 12.079 5.11 15.728 5.022 3.65 11.516 3.649 16.538 0l.284-.207.284.207c2.512 1.825 5.39 2.737 8.269 2.737s5.758-.912 8.27-2.737c5.022-3.649 7.029-9.823 5.109-15.73l-.107-.332.285-.207c5.022-3.65 7.028-9.824 5.109-15.729-1.919-5.904-7.171-9.72-13.379-9.72h-.353l-.108-.334s0 0 0-.001l-.001-.002c-1.919-5.903-7.17-9.718-13.378-9.718-6.209 0-11.461 3.815-13.378 9.718l-.109.337h-.353c-6.208 0-11.46 3.815-13.379 9.72-1.918 5.906.088 12.079 5.114 15.732zm22.106-18.703c2.044 4.519 6.308 7.617 11.237 8.165-3.665 3.34-5.294 8.352-4.292 13.211-2.155-1.228-4.55-1.841-6.945-1.841s-4.79.614-6.945 1.841c1.002-4.856-.626-9.868-4.293-13.211 4.93-.548 9.195-3.647 11.238-8.165z"/><path d="m320.961 409.864c-1.656 5.456.307 11.333 4.936 14.696s10.825 3.413 15.501.153c2.303 1.605 4.973 2.408 7.643 2.408 2.755 0 5.51-.854 7.859-2.562 4.631-3.365 6.593-9.245 4.935-14.695 4.547-3.44 6.413-9.348 4.646-14.79-1.769-5.441-6.751-9.124-12.451-9.235-1.866-5.387-6.909-8.988-12.63-8.988-5.722 0-10.765 3.601-12.631 8.988-5.7.11-10.684 3.793-12.451 9.235-1.77 5.441.097 11.35 4.643 14.79zm20.437-15.484c1.86 3.092 4.895 5.297 8.411 6.111-2.366 2.726-3.525 6.294-3.213 9.887-3.325-1.408-7.075-1.408-10.396 0 .312-3.595-.847-7.162-3.213-9.888 3.516-.813 6.551-3.018 8.411-6.11z"/><path d="m150.413 409.864c-1.656 5.455.306 11.332 4.935 14.695 4.625 3.362 10.82 3.415 15.502.154 2.303 1.606 4.972 2.408 7.643 2.408 2.754 0 5.509-.854 7.858-2.561 4.628-3.363 6.592-9.239 4.936-14.696 4.547-3.44 6.413-9.348 4.645-14.79s-6.751-9.125-12.451-9.235c-1.866-5.387-6.909-8.988-12.631-8.988-5.721 0-10.764 3.601-12.63 8.988-5.7.111-10.683 3.794-12.451 9.235-1.769 5.443.098 11.352 4.644 14.79zm20.436-15.484c1.861 3.092 4.896 5.297 8.411 6.111-2.365 2.725-3.524 6.292-3.213 9.888-3.322-1.407-7.073-1.408-10.397.001.313-3.597-.846-7.165-3.211-9.889 3.516-.815 6.55-3.019 8.41-6.111z"/></g></g></svg>