<svg id="Layer_1" enable-background="new 0 0 512.001 512.001" height="512" viewBox="0 0 512.001 512.001" width="512" xmlns="http://www.w3.org/2000/svg"><g><g clip-rule="evenodd" fill-rule="evenodd"><path d="m362.76 257.351-188.482-16.416 12.097-70.852c1.855-10.873-5.455-21.191-16.328-23.047-10.873-1.855-21.192 5.455-23.047 16.328l-15.75 92.25c-1.961 11.491 6.374 22.266 17.969 23.281l56.477 4.919c-3.191 22.464-2.074 51.641 1.738 73.044 2.21-.539 4.695-.854 7.567-.854 19.812 0 21.188 15 41 15 14.603 0 19.191-8.15 28.528-12.434-.825-19.518-.672-46.749 4.546-67.493l70.248 6.118c11.002.949 20.691-7.201 21.641-18.203.948-11.003-7.202-20.692-18.204-21.641z" fill="#ffdcd5"/><circle cx="254.061" cy="206.224" fill="#ffdcd5" r="40"/><ellipse cx="368.048" cy="76.001" fill="#ffc144" rx="40" ry="40" transform="matrix(.973 -.23 .23 .973 -7.616 86.593)"/><g><path d="m297.001 416.005c19.812 0 21.188 15 41 15s21.188-15 41-15 21.188 15 41 15 21.188-15 41-15 21.188 15 41 15v-60.002c-19.812 0-21.188-15-41-15s-21.188 15-41 15-21.188-15-41-15-21.188 15-41 15-21.188-15-41-15-21.188 15-41 15-21.188-15-41-15-21.188 15-41 15-21.188-15-41-15-21.188 15-41 15-21.188-15-41-15-21.188 15-41 15v60.002c19.812 0 21.188-15 41-15s21.188 15 41 15 21.188-15 41-15 21.188 15 41 15 21.188-15 41-15 21.188 15 41 15c19.811.001 21.188-15 41-15z" fill="#99ebfa"/><path d="m338.001 431.006c-19.812 0-21.188-15-41-15s-21.188 15-41 15-21.188-15-41-15-21.188 15-41 15-21.188-15-41-15-21.188 15-41 15-21.188-15-41-15-21.188 15-41 15v44.994h492.002v-44.995c-19.812 0-21.188-15-41-15s-21.188 15-41 15-21.188-15-41-15c-19.814 0-21.19 15.001-41.002 15.001z" fill="#33d6f5"/></g></g><g><path d="m502.001 361.003c-6.725 0-9.906-2.252-14.722-5.662-5.877-4.161-13.191-9.338-26.278-9.338s-20.401 5.178-26.278 9.338c-4.815 3.409-7.997 5.662-14.722 5.662s-9.906-2.252-14.722-5.662c-5.877-4.161-13.191-9.338-26.278-9.338s-20.401 5.178-26.278 9.338c-4.815 3.409-7.997 5.662-14.722 5.662s-9.906-2.252-14.722-5.662c-5.877-4.161-13.191-9.338-26.278-9.338-.972 0-1.903.037-2.813.092-.18-14.026.374-30.201 2.838-44.288l61.438 5.351c16.478 1.424 31.042-10.829 32.463-27.307.688-7.982-1.772-15.755-6.93-21.887-5.157-6.132-12.395-9.888-20.368-10.576l-73.665-6.416c8.717-9.004 14.098-21.256 14.098-34.749 0-27.57-22.43-50-50-50s-50 22.43-50 50c0 10.374 3.178 20.019 8.608 28.017l-26.707-2.326 10.27-60.15c1.347-7.892-.46-15.835-5.088-22.368-4.628-6.532-11.523-10.872-19.415-12.218-16.292-2.784-31.807 8.212-34.586 24.502l-15.75 92.251c-1.402 8.218.725 16.73 5.837 23.354 5.113 6.626 12.811 10.844 21.122 11.572l46.282 4.031c-1.486 17.95-.882 39.03 1.682 57.596-2.899 1.539-5.352 3.271-7.592 4.858-4.816 3.409-7.998 5.662-14.722 5.662-6.725 0-9.906-2.252-14.722-5.662-5.877-4.161-13.191-9.338-26.278-9.338s-20.401 5.178-26.278 9.338c-4.816 3.409-7.998 5.662-14.722 5.662s-9.906-2.252-14.722-5.662c-5.877-4.161-13.191-9.338-26.278-9.338s-20.401 5.178-26.278 9.338c-4.816 3.409-7.998 5.662-14.722 5.662-5.523 0-10 4.477-10 10v104.996c0 5.523 4.477 10 10 10h492.001c5.522 0 10-4.477 10-10v-104.997c-.003-5.523-4.481-10-10.003-10zm-247.94-184.779c16.542 0 30 13.458 30 30s-13.458 30-30 30-30-13.458-30-30 13.458-30 30-30zm-103.971 92.709c-2.797-.245-5.293-1.618-7.028-3.866-1.733-2.246-2.427-5.005-1.956-7.77l15.75-92.251c.448-2.625 1.892-4.92 4.065-6.459 2.174-1.541 4.818-2.143 7.442-1.693 5.42.925 9.078 6.087 8.153 11.506l-12.097 70.852c-.47 2.755.234 5.582 1.941 7.794 1.708 2.212 4.264 3.609 7.048 3.852l188.492 16.416c2.66.229 5.071 1.481 6.79 3.524s2.539 4.633 2.31 7.294c-.475 5.491-5.33 9.571-10.811 9.1l-70.248-6.118c-4.882-.423-9.367 2.761-10.565 7.523-4.99 19.839-5.594 44.901-5.05 64.222-1.275.836-2.467 1.678-3.604 2.482-4.815 3.409-7.997 5.662-14.722 5.662s-9.906-2.252-14.722-5.662c-5.739-4.063-12.864-9.082-25.382-9.316-2.587-20.033-2.758-43.502-.301-60.805.386-2.719-.363-5.477-2.071-7.627s-4.226-3.503-6.962-3.741zm-130.09 197.067v-25.922c7.709-1.676 12.858-5.328 17.211-8.422 4.787-3.402 7.949-5.65 14.623-5.65s9.836 2.248 14.623 5.65c5.86 4.166 13.152 9.35 26.21 9.35s20.351-5.184 26.21-9.35c4.787-3.402 7.95-5.65 14.623-5.65s9.836 2.248 14.623 5.65c5.86 4.166 13.153 9.35 26.21 9.35s20.351-5.184 26.21-9.348c4.001-2.844 6.892-4.898 11.664-5.48 5.482-.668 9.384-5.655 8.715-11.137s-5.65-9.387-11.137-8.715c-9.803 1.196-15.916 5.54-20.828 9.031-4.788 3.403-7.95 5.65-14.625 5.65-6.674 0-9.836-2.248-14.624-5.651-5.86-4.165-13.152-9.349-26.21-9.349s-20.35 5.184-26.21 9.349c-4.787 3.403-7.95 5.651-14.624 5.651-6.673 0-9.835-2.248-14.623-5.65-5.86-4.166-13.153-9.35-26.21-9.35s-20.351 5.184-26.21 9.35c-2.036 1.448-3.78 2.683-5.624 3.629v-39.127c7.193-1.76 12.099-5.233 16.278-8.192 4.816-3.409 7.998-5.662 14.722-5.662 6.725 0 9.906 2.252 14.722 5.662 5.877 4.161 13.19 9.338 26.278 9.338s20.401-5.178 26.278-9.338c4.816-3.409 7.998-5.662 14.722-5.662s9.906 2.252 14.722 5.662c5.877 4.161 13.191 9.338 26.278 9.338s20.401-5.178 26.278-9.338c4.816-3.409 7.998-5.662 14.722-5.662s9.906 2.252 14.722 5.662c5.877 4.161 13.191 9.338 26.278 9.338s20.402-5.178 26.279-9.338c4.815-3.409 7.997-5.662 14.722-5.662s9.906 2.252 14.722 5.662c5.877 4.161 13.191 9.338 26.278 9.338s20.401-5.178 26.278-9.338c4.815-3.409 7.997-5.662 14.722-5.662s9.906 2.252 14.722 5.662c5.877 4.161 13.191 9.338 26.278 9.338s20.401-5.178 26.278-9.338c4.815-3.409 7.997-5.662 14.722-5.662s9.906 2.252 14.722 5.662c4.18 2.959 9.086 6.432 16.278 8.192v39.126c-1.844-.945-3.587-2.181-5.623-3.628-5.86-4.166-13.153-9.35-26.211-9.35s-20.351 5.184-26.211 9.35c-4.787 3.403-7.949 5.65-14.622 5.65-6.674 0-9.836-2.248-14.623-5.65-5.86-4.166-13.153-9.35-26.211-9.35s-20.35 5.184-26.21 9.349c-4.787 3.403-7.949 5.651-14.623 5.651s-9.837-2.248-14.625-5.65c-4.913-3.492-11.027-7.838-20.836-9.032-5.492-.665-10.468 3.236-11.136 8.718-.667 5.482 3.235 10.468 8.718 11.135 4.774.581 7.666 2.636 11.668 5.48 5.86 4.165 13.153 9.349 26.211 9.349s20.351-5.184 26.211-9.35c4.786-3.403 7.949-5.65 14.622-5.65 6.674 0 9.836 2.248 14.623 5.65 5.86 4.166 13.153 9.35 26.211 9.35 13.057 0 20.35-5.184 26.21-9.349 4.787-3.403 7.949-5.651 14.623-5.651s9.836 2.248 14.623 5.651c4.353 3.094 9.502 6.746 17.211 8.422v25.92z"/><path d="m256 421.005h-.007c-5.523 0-9.996 4.477-9.996 10s4.48 10 10.003 10 10-4.477 10-10-4.477-10-10-10z"/><path d="m368.049 126c27.57 0 50-22.43 50-50s-22.43-50-50-50-50 22.43-50 50 22.43 50 50 50zm0-80c16.542 0 30 13.458 30 30s-13.458 30-30 30-30-13.458-30-30 13.458-30 30-30z"/></g></g></svg>