<?xml version="1.0"?>
<svg xmlns="http://www.w3.org/2000/svg" id="Capa_1" enable-background="new 0 0 512.013 512.013" height="512px" viewBox="0 0 512.013 512.013" width="512px" class=""><g><g id="XMLID_1895_"><circle id="XMLID_1941_" cx="82" cy="256.007" fill="#f6da8f" r="72" data-original="#F6DA8F"/><circle id="XMLID_1939_" cx="82" cy="256.007" fill="#f6da8f" r="29.647" data-original="#F6DA8F"/><g id="XMLID_1914_" fill="#e0ef9b"><path id="XMLID_1938_" d="m236.631 98.089c-17.951 17.951-19.66 45.992-5.131 65.866-14.529 19.875-12.82 47.915 5.131 65.866 19.843 19.843 52.014 19.843 71.857 0l65.866-65.866-65.866-65.866c-19.843-19.843-52.014-19.843-71.857 0z" data-original="#E0EF9B" class="active-path" style="fill:#90CB97" data-old_color="#E0EF9B"/><path id="XMLID_1936_" d="m386.173 316.159c24.522 6.571 49.66-5.97 59.607-28.489 24.477 2.645 47.906-12.855 54.476-37.376 7.263-27.106-8.823-54.967-35.928-62.23l-89.974-24.109-24.109 89.974c-7.263 27.106 8.822 54.967 35.928 62.23z" data-original="#E0EF9B" class="active-path" style="fill:#90CB97" data-old_color="#E0EF9B"/><path id="XMLID_1920_" d="m500.256 77.616c-6.571-24.522-30-40.021-54.476-37.376-9.948-22.52-35.086-35.06-59.607-28.489-27.106 7.263-43.191 35.124-35.928 62.23l24.109 89.974 89.974-24.108c27.105-7.264 43.191-35.125 35.928-62.231z" data-original="#E0EF9B" class="active-path" style="fill:#90CB97" data-old_color="#E0EF9B"/></g><circle id="XMLID_1716_" cx="357.627" cy="430.007" fill="#f6da8f" r="72" data-original="#F6DA8F"/><circle id="XMLID_1704_" cx="357.627" cy="430.007" fill="#f6da8f" r="29.647" data-original="#F6DA8F"/><g id="XMLID_3101_"><path id="XMLID_3104_" d="m466.916 178.404-53.926-14.449 53.925-14.449c15.69-4.204 28.803-14.266 36.925-28.333s10.279-30.455 6.075-46.144c-3.778-14.099-12.502-26.374-24.567-34.562-9.979-6.774-21.707-10.408-33.628-10.515-6.053-10.271-15.065-18.61-25.921-23.866-13.124-6.353-28.115-7.772-42.215-3.995-32.388 8.679-51.677 42.089-42.999 74.478l14.449 53.924-39.476-39.476c-23.71-23.71-62.289-23.71-85.999 0v.001c-10.322 10.321-16.589 24.014-17.648 38.556-.876 12.03 1.84 24.003 7.709 34.38-5.868 10.377-8.585 22.352-7.709 34.381 1.06 14.542 7.327 28.235 17.648 38.557 11.855 11.854 27.427 17.782 42.999 17.782 7.339 0 14.673-1.334 21.622-3.967-23.551 39.441-41.403 82.155-52.806 126.871-1.365 5.352 1.867 10.796 7.219 12.161.829.211 1.66.312 2.479.312 4.462 0 8.529-3.009 9.683-7.531 17.022-66.746 49.029-128.844 93.362-181.677l-13.531 50.498c-8.678 32.388 10.611 65.798 42.999 74.477 5.174 1.386 10.465 2.073 15.743 2.073 9.105 0 18.164-2.045 26.472-6.067 10.856-5.256 19.867-13.595 25.92-23.866 11.921-.107 23.649-3.741 33.629-10.515 12.064-8.188 20.789-20.463 24.566-34.562 4.204-15.689 2.047-32.077-6.075-46.144-8.121-14.067-21.235-24.129-36.924-28.333zm-167.652-4.45 50.874.073-48.721 48.721c-15.912 15.912-41.804 15.912-57.715 0-14.094-14.094-15.869-36.833-4.129-52.894 2.57-3.515 2.57-8.288 0-11.803-11.74-16.06-9.965-38.798 4.129-52.893 7.956-7.956 18.407-11.934 28.858-11.934s20.901 3.978 28.857 11.934l48.868 48.868-50.992-.074c-.005 0-.01 0-.015 0-5.516 0-9.992 4.468-10 9.985-.007 5.526 4.464 10.01 9.986 10.017zm89.497-152.545c3.45-.924 6.939-1.367 10.395-1.367 15.828 0 30.878 9.302 37.477 24.239 1.759 3.982 5.895 6.366 10.221 5.901 19.788-2.133 38.584 10.77 43.742 30.023 2.821 10.529 1.374 21.527-4.077 30.967s-14.251 16.193-24.781 19.015l-66.655 17.86 25.466-44.109c2.762-4.783 1.122-10.899-3.66-13.66-4.784-2.762-10.899-1.124-13.66 3.66l-25.466 44.109-17.86-66.655c-5.823-21.736 7.122-44.158 28.858-49.983zm101.836 226.296c-5.158 19.253-23.965 32.161-43.743 30.023-4.332-.469-8.463 1.919-10.222 5.901-8.038 18.197-28.617 28.031-47.871 22.871-21.736-5.824-34.681-28.246-28.857-49.982l17.841-66.582 25.491 44.045c1.854 3.203 5.212 4.992 8.664 4.992 1.7 0 3.423-.434 5-1.347 4.78-2.766 6.412-8.884 3.645-13.664l-25.535-44.119 66.728 17.88c10.529 2.822 19.33 9.575 24.78 19.015 5.452 9.44 6.9 20.437 4.079 30.967z" data-original="#000000" class=""/><path id="XMLID_3107_" d="m130.697 190.027c-4.441-3.281-10.702-2.343-13.986 2.098-3.283 4.441-2.343 10.703 2.098 13.986 15.773 11.658 25.19 30.311 25.19 49.896 0 34.187-27.813 62-62 62s-62-27.813-62-62c0-19.583 9.416-38.235 25.188-49.894 4.441-3.283 5.38-9.545 2.097-13.986s-9.544-5.38-13.986-2.097c-20.85 15.413-33.298 40.077-33.298 65.977 0 45.215 36.785 82 82 82s82-36.785 82-82c0-25.902-12.45-50.567-33.303-65.98z" data-original="#000000" class=""/><path id="XMLID_3110_" d="m82 295.654c21.861 0 39.647-17.786 39.647-39.647s-17.786-39.647-39.647-39.647-39.647 17.786-39.647 39.647 17.786 39.647 39.647 39.647zm0-59.294c10.834 0 19.647 8.814 19.647 19.647s-8.813 19.647-19.647 19.647-19.647-8.814-19.647-19.647 8.813-19.647 19.647-19.647z" data-original="#000000" class=""/><path id="XMLID_3113_" d="m357.627 348.007c-45.215 0-82 36.785-82 82s36.785 82 82 82 82-36.785 82-82-36.785-82-82-82zm0 144c-34.187 0-62-27.813-62-62s27.813-62 62-62 62 27.813 62 62-27.813 62-62 62z" data-original="#000000" class=""/><path id="XMLID_3116_" d="m357.627 390.36c-21.861 0-39.647 17.786-39.647 39.647s17.786 39.647 39.647 39.647 39.647-17.786 39.647-39.647-17.785-39.647-39.647-39.647zm0 59.294c-10.833 0-19.647-8.814-19.647-19.647s8.813-19.647 19.647-19.647 19.647 8.814 19.647 19.647-8.813 19.647-19.647 19.647z" data-original="#000000" class=""/><path id="XMLID_3117_" d="m111.647 33.34c5.523 0 10-4.477 10-10v-13.333c0-5.523-4.477-10-10-10s-10 4.477-10 10v13.333c0 5.523 4.477 10 10 10z" data-original="#000000" class=""/><path id="XMLID_3118_" d="m111.647 100.007c5.523 0 10-4.477 10-10v-13.334c0-5.523-4.477-10-10-10s-10 4.477-10 10v13.334c0 5.523 4.477 10 10 10z" data-original="#000000" class=""/><path id="XMLID_3119_" d="m138.313 60.007h13.334c5.523 0 10-4.477 10-10s-4.477-10-10-10h-13.334c-5.523 0-10 4.477-10 10s4.477 10 10 10z" data-original="#000000" class=""/><path id="XMLID_3120_" d="m71.647 60.007h13.333c5.523 0 10-4.477 10-10s-4.477-10-10-10h-13.333c-5.523 0-10 4.477-10 10s4.477 10 10 10z" data-original="#000000" class=""/><path id="XMLID_3121_" d="m154 380.007c-5.523 0-10 4.477-10 10v13.333c0 5.523 4.477 10 10 10s10-4.477 10-10v-13.333c0-5.523-4.477-10-10-10z" data-original="#000000" class=""/><path id="XMLID_3122_" d="m154 446.673c-5.523 0-10 4.477-10 10v13.333c0 5.523 4.477 10 10 10s10-4.477 10-10v-13.333c0-5.523-4.477-10-10-10z" data-original="#000000" class=""/><path id="XMLID_3123_" d="m194 420.007h-13.334c-5.523 0-10 4.477-10 10s4.477 10 10 10h13.334c5.523 0 10-4.477 10-10s-4.477-10-10-10z" data-original="#000000" class=""/><path id="XMLID_3124_" d="m127.333 420.007h-13.333c-5.523 0-10 4.477-10 10s4.477 10 10 10h13.333c5.523 0 10-4.477 10-10s-4.477-10-10-10z" data-original="#000000" class=""/><path id="XMLID_3125_" d="m74.93 176.936c-1.86 1.86-2.93 4.44-2.93 7.07s1.07 5.21 2.93 7.07 4.44 2.93 7.07 2.93 5.21-1.07 7.07-2.93 2.93-4.44 2.93-7.07-1.07-5.21-2.93-7.07-4.44-2.93-7.07-2.93-5.21 1.07-7.07 2.93z" data-original="#000000" class=""/></g></g></g> </svg>
